<?xml version="1.0" encoding="iso-8859-1"?>
<!-- Generator: Adobe Illustrator 19.0.0, SVG Export Plug-In . SVG Version: 6.00 Build 0)  -->
<svg version="1.1" id="Layer_1" xmlns="http://www.w3.org/2000/svg" xmlns:xlink="http://www.w3.org/1999/xlink" x="0px" y="0px"
	 viewBox="0 0 490 490" style="enable-background:new 0 0 490 490;" xml:space="preserve">
<g>
	<g>
		<g>
			<path d="M345,45H135c-5.523,0-10,4.478-10,10v120c0,5.523,4.477,10,10,10h210c5.522,0,10-4.477,10-10V55
				C355,49.478,350.522,45,345,45z M335,165H145v-15h175v-20H145V65h190V165z"/>
			<path d="M440,40h-40V30c0-16.542-13.458-30-30-30H50c-5.522,0-10,4.477-10,10v470c0,5.522,4.478,10,10,10h320
				c16.542,0,30-13.458,30-30V300h40c5.522,0,10-4.478,10-10V50C450,44.478,445.522,40,440,40z M380,460c0,5.514-4.486,10-10,10H60
				V20h20v410h20V20h270c5.514,0,10,4.486,10,10V460z M430,280h-30v-40h30V280z M430,220h-30v-40h30V220z M430,160h-30v-40h30V160z
				 M430,100h-30V60h30V100z"/>
			<rect x="405" y="70" width="20" height="20"/>
			<rect x="405" y="190" width="20" height="20"/>
			<rect x="125" y="215" width="75" height="20"/>
			<rect x="125" y="255" width="180" height="20"/>
		</g>
	</g>
</g>
<g>
</g>
<g>
</g>
<g>
</g>
<g>
</g>
<g>
</g>
<g>
</g>
<g>
</g>
<g>
</g>
<g>
</g>
<g>
</g>
<g>
</g>
<g>
</g>
<g>
</g>
<g>
</g>
<g>
</g>
</svg>
